<?xml version="1.0" standalone="no"?>
<!DOCTYPE svg PUBLIC "-//W3C//DTD SVG 20010904//EN"
 "http://www.w3.org/TR/2001/REC-SVG-20010904/DTD/svg10.dtd">
<svg version="1.0" xmlns="http://www.w3.org/2000/svg"
 width="512.000000pt" height="512.000000pt" viewBox="0 0 512.000000 512.000000"
 preserveAspectRatio="xMidYMid meet">
<metadata>
Created by potrace 1.14, written by Peter Selinger 2001-2017
</metadata>
<g transform="translate(0.000000,512.000000) scale(0.100000,-0.100000)"
fill="#000000" stroke="none">
<path d="M2618 4614 c-2 -1 -15 -4 -30 -6 -54 -8 -146 -84 -146 -122 0 -5 -5
-12 -12 -16 -6 -4 -12 -18 -14 -31 -1 -14 -6 -30 -10 -37 -4 -7 -2 -12 6 -12
10 0 10 -2 -1 -9 -8 -5 -9 -11 -3 -15 5 -3 7 -17 4 -31 -3 -16 0 -25 8 -25 7
0 10 -8 7 -20 -3 -11 -1 -20 4 -20 5 0 19 -16 30 -35 12 -19 25 -33 29 -30 4
3 10 -2 14 -10 6 -16 74 -48 86 -40 5 3 11 1 14 -3 7 -12 86 -8 111 5 19 11
27 13 43 13 23 0 118 111 105 124 -3 3 -1 6 5 6 6 0 9 9 7 20 -2 11 -1 20 3
20 4 0 7 20 7 45 0 25 -4 45 -9 45 -5 0 -7 3 -3 6 10 11 -33 87 -67 117 -42
38 -82 56 -138 60 -26 3 -48 3 -50 1z"/>
<path d="M1744 3970 c-3 -2 -29 -6 -57 -7 -29 -1 -52 -2 -52 -3 0 -1 -7 -3
-15 -5 -8 -2 -26 -6 -40 -9 -14 -3 -36 -8 -50 -12 -14 -3 -34 -7 -45 -8 -11
-1 -30 -8 -42 -14 -12 -7 -29 -12 -37 -12 -9 0 -16 -4 -16 -9 0 -6 -9 -8 -20
-6 -11 2 -18 0 -15 -6 4 -5 -3 -9 -14 -9 -12 0 -21 -5 -21 -10 0 -6 -3 -9 -7
-8 -13 4 -84 -33 -157 -82 -38 -25 -76 -49 -85 -55 -8 -5 -24 -18 -35 -29 -12
-10 -31 -25 -43 -33 -13 -8 -20 -19 -17 -24 3 -5 1 -9 -5 -9 -5 0 -26 -16 -47
-35 -20 -19 -34 -35 -31 -35 4 0 -4 -10 -16 -23 -12 -13 -26 -21 -31 -19 -5 3
-6 1 -3 -5 3 -5 -5 -22 -19 -38 -13 -15 -24 -32 -24 -37 0 -5 -5 -6 -12 -2 -6
4 -8 3 -5 -3 4 -5 -7 -28 -23 -50 -16 -22 -27 -43 -23 -47 3 -3 1 -6 -6 -6 -7
0 -9 -4 -6 -10 3 -5 1 -10 -4 -10 -6 0 -11 -7 -11 -16 0 -9 -5 -12 -12 -8 -6
4 -9 3 -5 -2 6 -10 -37 -117 -44 -110 -3 3 -5 -3 -6 -12 -3 -42 -8 -62 -14
-62 -4 0 -11 -19 -15 -42 -9 -50 -9 -48 -18 -70 -5 -10 -6 -24 -3 -32 3 -8 2
-16 -3 -18 -23 -8 -30 -401 -8 -424 4 -3 4 -13 1 -21 -3 -8 0 -19 8 -24 10 -6
11 -9 1 -9 -10 0 -9 -7 1 -33 8 -17 13 -40 11 -50 -1 -9 2 -17 8 -17 6 0 8 -7
4 -15 -3 -8 -1 -15 4 -15 5 0 7 -7 4 -15 -4 -8 -1 -15 6 -15 6 0 9 -4 5 -10
-3 -5 -2 -17 3 -27 39 -76 67 -141 59 -136 -5 3 -5 -2 1 -13 12 -22 23 -84 25
-136 1 -20 6 -34 11 -31 5 4 7 -1 3 -9 -3 -9 -3 -19 1 -23 8 -7 9 -13 11 -51
0 -14 5 -23 9 -20 5 3 8 -5 7 -17 -1 -12 2 -27 7 -34 5 -7 7 -16 4 -22 -3 -5
-2 -11 4 -13 6 -2 12 -14 15 -27 2 -14 8 -27 13 -30 5 -3 8 -14 6 -23 -1 -10
2 -18 7 -18 5 0 9 -9 9 -20 0 -11 4 -20 9 -20 5 0 12 -14 16 -30 4 -17 11 -30
16 -30 5 0 8 -3 7 -7 -1 -9 13 -46 21 -53 10 -8 42 -64 48 -82 3 -10 9 -18 14
-18 5 0 9 -7 9 -16 0 -8 4 -13 9 -10 8 5 25 -29 22 -46 -1 -5 5 -8 13 -8 8 0
17 -8 20 -17 6 -16 28 -42 136 -160 16 -17 31 -28 34 -25 3 3 6 -2 6 -11 0
-10 6 -16 13 -15 6 2 11 -3 9 -10 -1 -6 2 -11 6 -10 8 3 26 -11 87 -68 12 -11
27 -18 33 -16 7 2 12 -1 12 -6 0 -10 68 -56 140 -95 19 -11 42 -25 51 -33 8
-8 21 -14 28 -14 7 0 30 -9 50 -19 43 -23 73 -35 84 -33 4 1 7 -2 7 -8 0 -5 7
-7 15 -4 8 4 15 1 15 -6 0 -7 7 -10 15 -6 8 3 15 1 15 -4 0 -6 3 -9 8 -8 4 1
27 -5 52 -12 65 -19 139 -35 153 -32 4 1 7 -2 7 -6 0 -5 14 -7 30 -6 17 1 30
-1 30 -5 0 -4 15 -6 33 -6 17 1 35 -4 39 -9 5 -7 8 -6 8 2 0 8 5 10 13 5 17
-11 267 -12 273 -1 3 5 12 4 20 -3 11 -9 14 -9 14 1 0 7 7 10 16 6 8 -3 24 -1
35 4 13 8 19 7 19 0 0 -6 5 -8 13 -3 6 4 17 8 22 9 74 12 140 26 155 31 19 8
30 11 57 17 12 2 30 9 40 13 10 5 34 8 53 7 19 -2 61 -4 92 -6 32 -2 58 -7 58
-11 0 -5 6 -5 12 -1 7 5 33 9 58 11 25 1 63 5 85 8 22 3 49 7 60 8 11 1 22 5
25 9 3 4 21 10 39 13 47 8 165 60 189 83 7 6 20 12 28 12 8 0 14 5 14 10 0 6
10 14 23 19 12 5 37 22 56 38 50 41 159 151 155 156 -2 2 5 12 16 22 11 10 20
24 20 32 0 7 7 16 15 19 8 4 12 10 9 15 -3 5 0 9 7 9 7 0 10 3 6 6 -3 4 1 13
9 21 8 8 12 19 9 24 -4 5 -2 9 3 9 7 0 53 103 58 130 0 3 6 23 12 45 17 62 25
106 26 153 1 23 4 42 8 42 3 0 4 8 2 18 -2 9 -6 51 -8 92 -2 41 -5 75 -6 75
-2 0 -6 23 -14 75 -2 14 -5 25 -6 25 -1 0 -3 11 -6 24 -2 14 -8 29 -13 35 -8
9 -8 170 -1 186 1 3 2 8 2 11 -2 11 57 69 69 69 5 0 7 5 4 10 -3 6 -1 10 5 10
6 0 8 5 5 10 -3 6 0 10 7 10 7 0 24 16 37 35 21 31 39 54 71 93 6 6 8 12 4 12
-4 0 0 8 8 18 13 15 51 89 53 102 0 6 24 67 36 95 5 11 11 36 14 55 4 19 11
38 18 42 9 6 8 8 -2 8 -11 0 -11 3 0 17 8 9 13 18 12 20 -2 1 -3 4 -2 6 0 1 2
26 5 56 3 30 10 62 17 70 7 8 7 12 1 8 -7 -4 -11 17 -12 61 -3 125 -7 170 -13
166 -3 -2 -7 11 -8 29 -4 55 -4 57 -14 57 -5 0 -7 6 -4 14 3 8 -1 17 -10 20
-12 5 -13 9 -3 21 7 8 8 15 3 15 -5 0 -16 18 -23 40 -7 22 -17 40 -21 40 -5 0
-6 6 -3 13 2 7 -4 21 -15 31 -11 10 -17 24 -14 32 3 8 1 14 -4 14 -8 0 -44 52
-44 64 0 16 -191 216 -206 216 -5 0 -15 9 -23 20 -8 11 -18 20 -22 20 -4 0
-27 14 -51 30 -25 17 -50 30 -56 30 -6 0 -11 5 -11 10 0 6 -3 9 -7 8 -5 -1
-30 8 -58 21 -27 13 -54 24 -60 25 -5 1 -14 4 -20 8 -9 5 -68 20 -80 19 -2 0
-19 5 -37 10 -157 47 -462 14 -616 -65 -16 -8 -32 -12 -36 -9 -3 4 -6 2 -6 -4
0 -14 -49 -31 -75 -26 -11 2 -29 5 -40 6 -12 2 -26 7 -33 11 -7 4 -19 5 -27 2
-8 -3 -17 -1 -20 5 -4 5 -11 7 -16 4 -5 -4 -15 -3 -21 2 -7 4 -22 8 -33 9 -11
1 -52 5 -92 8 -39 4 -101 7 -138 8 -36 1 -68 5 -71 9 -2 5 -11 6 -19 2 -8 -3
-15 0 -15 7 0 6 -4 9 -9 5 -5 -3 -12 -1 -16 4 -3 6 -12 8 -20 4 -9 -3 -21 -1
-28 4 -6 5 -28 10 -47 12 -19 2 -36 6 -38 10 -1 4 -19 6 -39 4 -21 -1 -41 3
-46 10 -7 9 -10 9 -14 -1 -2 -6 -9 -9 -15 -6 -12 8 -187 11 -194 4z m-109
-670 c4 -7 13 -7 24 0 12 6 22 5 31 -3 10 -9 11 -9 6 1 -9 15 -5 15 28 2 17
-6 27 -6 32 1 4 7 10 7 18 0 6 -5 18 -6 25 -2 16 10 75 -2 99 -21 28 -22 44
-38 37 -38 -3 0 -3 -6 2 -12 11 -19 12 -30 13 -179 l2 -135 26 -10 c15 -5 62
-9 105 -8 l77 2 1 -32 c1 -17 1 -139 2 -271 l1 -240 -93 -1 c-93 -1 -112 -8
-118 -41 -9 -50 -2 -83 18 -83 43 0 111 -65 115 -110 1 -8 5 -23 9 -32 4 -10
3 -18 -3 -18 -5 0 -8 -12 -6 -26 2 -19 -8 -36 -37 -65 -21 -21 -42 -38 -46
-38 -20 3 -34 -2 -29 -10 3 -5 -2 -8 -11 -7 -9 0 -22 -9 -29 -22 -6 -13 -14
-22 -17 -20 -4 2 -12 -5 -20 -16 -7 -10 -27 -19 -44 -21 -17 -1 -36 -5 -42 -9
-6 -4 -11 -2 -11 4 0 8 -6 8 -20 0 -14 -8 -26 -8 -40 0 -14 8 -20 8 -20 0 0
-8 -6 -8 -20 0 -14 8 -20 8 -20 0 0 -7 -6 -8 -19 0 -14 7 -22 7 -26 0 -4 -6
-12 -7 -18 -3 -7 4 -23 9 -36 11 -13 2 -34 11 -46 20 -23 17 -48 78 -39 94 3
4 0 8 -6 8 -6 0 -8 5 -4 11 6 10 9 236 4 264 -1 6 -2 15 0 20 2 14 3 148 0
160 -1 6 -2 12 -1 15 6 15 3 219 -3 228 -3 6 -2 13 3 17 7 3 7 15 1 29 -5 13
-6 26 -3 29 10 10 8 307 -2 308 -5 0 -4 3 2 6 9 3 10 10 3 23 -6 10 -7 21 -2
24 4 2 7 25 5 50 -5 81 44 147 104 141 12 -1 20 2 17 7 -3 4 -1 8 5 8 5 0 13
-5 16 -10z m1705 -253 c14 4 18 0 16 -14 -2 -10 2 -21 8 -25 8 -6 8 -8 -1 -8
-7 0 -10 -9 -7 -22 8 -32 7 -40 -2 -62 -5 -15 -4 -17 6 -11 9 6 11 4 5 -5 -12
-19 -14 -90 -3 -90 5 0 6 -6 1 -12 -11 -18 -11 -31 -1 -45 5 -6 5 -14 -1 -17
-10 -7 -9 -25 2 -43 5 -7 4 -13 -2 -13 -10 0 -8 -31 4 -49 3 -5 1 -13 -5 -16
-8 -5 -8 -11 -1 -19 6 -7 8 -16 5 -19 -10 -10 -12 -67 -3 -73 5 -3 6 -11 2
-17 -12 -19 -11 -77 1 -77 7 0 8 -3 1 -8 -14 -10 -15 -52 -1 -52 6 0 4 -5 -4
-10 -12 -8 -12 -10 -1 -10 9 0 10 -4 4 -12 -5 -7 -9 -37 -8 -65 1 -53 -5 -61
-40 -53 -27 6 -51 5 -62 -3 -7 -5 -18 -5 -25 -1 -17 11 -27 12 -60 3 -15 -4
-30 -4 -33 1 -3 6 -16 5 -29 0 -13 -5 -27 -6 -30 -3 -9 10 -50 10 -63 0 -7 -5
-18 -5 -25 -1 -16 10 -50 10 -66 0 -6 -4 -12 -3 -12 2 0 5 -11 7 -25 4 -19 -3
-32 4 -55 28 -26 28 -38 32 -86 35 -39 2 -60 8 -72 21 -18 20 -24 74 -9 74 4
0 5 6 0 13 -11 18 -13 37 -2 37 4 0 5 8 2 17 -9 23 -8 66 1 81 4 7 4 12 -1 12
-4 0 -8 14 -8 30 0 17 4 30 8 30 5 0 6 4 2 9 -10 17 -13 71 -3 71 5 0 6 4 3
10 -10 16 -11 90 -2 90 4 0 5 5 1 12 -4 7 -8 48 -8 92 -1 102 12 119 92 121
46 2 57 6 82 33 l28 31 222 0 c123 0 225 3 229 6 3 4 7 2 9 -3 2 -6 11 -8 22
-5z m147 -422 c-1 -336 -3 -425 -14 -429 -7 -3 -15 -1 -18 4 -4 6 -11 10 -16
10 -6 0 -7 -5 -4 -10 4 -6 -2 -6 -17 1 -17 7 -24 18 -23 40 0 16 4 29 10 29 7
0 7 3 0 8 -12 8 -14 72 -2 72 4 0 5 5 2 10 -11 18 -13 90 -2 90 5 0 4 6 -2 14
-8 10 -9 16 -1 21 6 3 7 11 4 17 -11 18 -10 88 1 88 7 0 7 3 0 8 -11 8 -14 57
-3 67 4 4 4 15 0 24 -10 19 -9 62 1 78 4 6 3 14 -1 17 -8 5 -9 29 -2 61 1 6 1
12 0 15 -7 19 -5 50 4 50 7 0 7 3 1 8 -11 8 -13 52 -3 67 4 6 3 17 -2 25 -16
25 1 40 45 40 l42 0 0 -425z m-1200 324 c5 11 7 11 14 0 5 -9 9 -10 9 -2 0 6
8 9 18 7 42 -9 103 -10 109 -1 3 5 9 3 14 -4 7 -12 9 -12 9 0 0 11 3 11 15 1
11 -9 15 -9 15 -1 0 7 5 9 11 6 5 -4 32 -7 59 -7 28 1 53 -4 57 -11 11 -18 12
-36 2 -43 -5 -3 -7 -10 -3 -16 8 -13 9 -202 1 -215 -4 -6 -2 -13 4 -15 7 -2 7
-12 0 -31 -6 -15 -7 -27 -3 -27 4 0 7 -61 7 -135 0 -74 -3 -135 -7 -135 -4 0
-5 -6 -2 -13 3 -8 -2 -14 -10 -14 -8 0 -12 5 -9 10 4 6 1 7 -7 2 -20 -12 -100
-13 -100 -1 0 6 -5 5 -11 -1 -8 -8 -20 -8 -36 -2 -16 6 -22 5 -18 -1 3 -6 2
-10 -4 -10 -5 0 -13 5 -16 10 -4 6 -12 7 -18 3 -17 -10 -153 -6 -175 6 -15 8
-18 21 -17 73 0 35 -3 69 -8 76 -5 6 -6 12 -1 12 5 0 8 40 7 90 -1 64 2 90 10
90 7 0 6 4 -3 10 -8 5 -11 12 -7 16 4 4 2 13 -4 21 -6 7 -8 13 -3 13 5 0 9 47
8 104 -1 108 10 144 40 133 9 -4 18 -1 22 5 4 7 10 6 16 -3 8 -12 10 -12 15 0z"/>
<path d="M1649 3201 c-14 -9 -27 -20 -28 -26 -1 -5 -9 -17 -17 -26 -30 -33
-10 -132 28 -145 10 -3 18 -11 18 -18 0 -18 84 -20 117 -2 32 17 64 52 56 60
-4 3 -2 6 4 6 15 0 9 81 -10 115 -9 17 -16 26 -17 21 0 -6 -6 -2 -13 8 -18 25
-103 29 -138 7z m101 -81 c0 -6 5 -8 10 -5 6 3 10 0 10 -7 -1 -52 -38 -82 -78
-62 -13 6 -23 15 -23 20 -1 5 -5 15 -11 22 -7 8 -7 12 1 12 7 0 10 4 7 9 -3 4
3 16 14 26 11 10 20 14 20 10 0 -5 5 -4 11 2 13 13 39 -6 39 -27z"/>
<path d="M1895 2124 c-11 -15 -19 -32 -19 -38 2 -11 15 -56 18 -56 38 -11 78
-9 92 5 17 17 29 89 13 80 -5 -4 -9 1 -9 10 0 9 -4 14 -9 10 -5 -3 -12 -1 -16
5 -12 19 -50 10 -70 -16z"/>
<path d="M4752 2723 c-6 -3 -10 -9 -6 -14 3 -5 0 -9 -5 -9 -6 0 -11 5 -11 11
0 6 -7 3 -16 -5 -8 -9 -20 -16 -25 -16 -5 0 -12 -1 -16 -2 -14 -5 -83 -75 -83
-85 0 -5 -9 -19 -20 -31 -12 -12 -16 -22 -9 -22 8 0 8 -4 -1 -15 -7 -8 -10
-22 -6 -30 4 -11 2 -14 -6 -9 -7 5 -9 0 -6 -14 4 -13 1 -22 -5 -22 -7 0 -5 -5
3 -10 8 -5 10 -10 4 -10 -15 0 -1 -66 26 -125 22 -48 96 -119 136 -130 16 -5
32 -9 37 -10 4 -2 8 -4 10 -5 6 -6 117 -5 117 2 0 4 7 5 15 2 8 -4 15 -1 15 4
0 6 9 9 20 7 11 -2 20 1 20 6 0 5 11 14 25 19 14 5 25 14 25 20 0 5 7 10 16
10 8 0 13 4 9 9 -3 6 4 15 16 21 11 7 18 14 15 17 -3 4 1 15 10 25 9 10 17 31
18 48 1 16 4 30 8 30 9 0 5 107 -5 116 -4 4 -7 18 -7 30 0 13 -5 26 -10 29 -6
4 -8 11 -5 16 4 5 -1 12 -9 15 -9 3 -16 11 -16 17 0 16 -57 63 -98 80 -75 31
-112 40 -112 27 0 -8 -31 -7 -45 2 -6 3 -16 3 -23 1z"/>
<path d="M240 2393 c0 -7 -9 -13 -20 -13 -11 0 -20 -4 -20 -10 0 -5 -7 -10
-16 -10 -8 0 -13 -4 -10 -9 3 -5 -1 -15 -10 -22 -18 -15 -16 -87 3 -107 7 -8
10 -18 7 -24 -4 -7 -2 -8 4 -4 7 4 12 3 12 -2 0 -19 66 -30 112 -20 22 5 64
44 66 61 1 6 3 27 5 46 2 19 -2 39 -10 46 -7 8 -13 18 -13 23 0 16 -78 51 -84
38 -3 -7 -8 -6 -15 4 -7 10 -11 11 -11 3z"/>
<path d="M4225 2057 c-19 -16 -35 -37 -35 -48 0 -11 -4 -18 -8 -15 -13 8 -4
-64 10 -82 11 -13 11 -14 -2 -7 -8 4 -1 -5 15 -21 42 -41 65 -51 111 -49 49 2
76 16 94 49 7 14 16 26 20 26 3 0 5 24 4 53 -2 68 -2 69 -13 63 -5 -3 -11 3
-14 13 -6 26 -66 52 -111 49 -23 -1 -49 -13 -71 -31z"/>
<path d="M690 1060 c0 -5 -8 -10 -19 -10 -18 0 -59 -44 -53 -57 2 -3 -1 -9 -8
-13 -17 -11 -19 -72 -2 -97 8 -13 10 -23 6 -23 -5 0 9 -16 31 -35 22 -19 45
-33 52 -31 7 3 15 1 18 -4 11 -17 99 10 126 39 25 26 41 60 34 71 -3 6 -2 10
4 10 9 0 8 11 -4 60 -2 8 -4 17 -4 20 -3 15 -51 61 -75 70 -35 13 -106 13
-106 0z"/>
</g>
</svg>
